<svg width="20" height="20" viewBox="0 0 20 20" fill="none" xmlns="http://www.w3.org/2000/svg">
<path d="M9.08337 12.75H10.9167V14.5833H9.08337V12.75ZM9.08337 5.41665H10.9167V10.9166H9.08337V5.41665ZM9.99087 0.833313C4.93087 0.833313 0.833374 4.93998 0.833374 9.99998C0.833374 15.06 4.93087 19.1666 9.99087 19.1666C15.06 19.1666 19.1667 15.06 19.1667 9.99998C19.1667 4.93998 15.06 0.833313 9.99087 0.833313ZM10 17.3333C5.94837 17.3333 2.66671 14.0516 2.66671 9.99998C2.66671 5.94831 5.94837 2.66665 10 2.66665C14.0517 2.66665 17.3334 5.94831 17.3334 9.99998C17.3334 14.0516 14.0517 17.3333 10 17.3333Z" fill="white"/>
</svg>
