<svg width="20" height="20" viewBox="0 0 20 20" fill="none" xmlns="http://www.w3.org/2000/svg">
<path d="M9.08337 5.41665H10.9167V7.24998H9.08337V5.41665ZM9.08337 9.08331H10.9167V14.5833H9.08337V9.08331ZM10 0.833313C4.94004 0.833313 0.833374 4.93998 0.833374 9.99998C0.833374 15.06 4.94004 19.1666 10 19.1666C15.06 19.1666 19.1667 15.06 19.1667 9.99998C19.1667 4.93998 15.06 0.833313 10 0.833313ZM10 17.3333C5.95754 17.3333 2.66671 14.0425 2.66671 9.99998C2.66671 5.95748 5.95754 2.66665 10 2.66665C14.0425 2.66665 17.3334 5.95748 17.3334 9.99998C17.3334 14.0425 14.0425 17.3333 10 17.3333Z" fill="white"/>
</svg>
