<svg width="20" height="20" viewBox="0 0 20 20" fill="none" xmlns="http://www.w3.org/2000/svg">
<path d="M14.2075 5.94831L8.16671 11.9891L4.87587 8.70748L3.58337 9.99998L8.16671 14.5833L15.5 7.24998L14.2075 5.94831ZM10 0.833313C4.94004 0.833313 0.833374 4.93998 0.833374 9.99998C0.833374 15.06 4.94004 19.1666 10 19.1666C15.06 19.1666 19.1667 15.06 19.1667 9.99998C19.1667 4.93998 15.06 0.833313 10 0.833313ZM10 17.3333C5.94837 17.3333 2.66671 14.0516 2.66671 9.99998C2.66671 5.94831 5.94837 2.66665 10 2.66665C14.0517 2.66665 17.3334 5.94831 17.3334 9.99998C17.3334 14.0516 14.0517 17.3333 10 17.3333Z" fill="white"/>
</svg>
