<svg width="120" height="136" viewBox="0 0 120 136" fill="none" xmlns="http://www.w3.org/2000/svg">
<path d="M72.0557 79.1332L72.4738 78.716L72.8919 78.0206L73.0313 77.4643L73.3101 76.7689L73.4494 75.7954V74.5437V73.5702V72.8749V71.6232L73.3101 70.6497V69.6761L73.1707 68.0073V66.4774L73.0313 64.5304L72.8919 63.2787L72.7526 62.1661V60.9145L72.6132 59.1065L72.4738 57.5767L72.1951 56.186L72.0557 54.378L71.9163 53.5435V52.9872L71.777 51.7356L71.3588 49.5104L71.0801 47.5634V47.0071L70.9407 46.3117L70.8014 45.4772L70.5226 44.6428L70.2439 43.113L69.9651 42.1395L69.8257 41.1659L69.6864 40.4706L69.547 39.9143L69.4076 39.4971L69.1289 39.0798L68.9895 38.3845L68.7108 37.8282L68.432 37.1328L68.1533 36.4374L67.7351 35.4639L67.1777 34.2122L66.8989 33.6559L66.4808 32.9606L66.0627 32.2652L65.6446 31.4308L65.0871 30.4572L64.5296 29.9009L64.1115 29.2056L63.6933 28.6493L63.2752 28.232L62.5784 27.2585L62.1602 26.7022L61.6028 26.0069L60.9059 25.1724L60.209 24.338L59.2334 23.2254L58.3972 22.2519L57.5609 21.2783L56.1672 19.8876L54.6341 18.3578L53.6585 17.2452L51.986 15.7154L50.4529 14.3246L49.0592 13.212L48.3623 12.5167L47.5261 11.8213L46.8292 11.265L45.7143 10.2915L44.3205 9.31797L43.6237 8.76167L43.2055 8.48352L42.3693 7.92723L41.5331 7.23186L40.2787 6.39741L39.1637 5.70204L38.1881 5.14574L37.2125 4.45037L36.2369 3.89408L34.4251 2.78148L33.3101 2.22519L32.4738 1.66889L31.4982 1.11259L30.9407 0.973519L30.2439 0.695371L29.547 0.417222L28.8501 0.278148L28.1533 0.139074L27.0383 0H25.7839H25.0871L24.3902 0.139074L23.554 0.278148L22.9965 0.417222L21.8815 0.695371L21.0453 0.973519L20.3484 1.25167L19.9303 1.52982L19.5122 1.80796L18.8153 2.22519L18.2578 2.78148L17.8397 3.05963L17.5609 3.33778L17.2822 3.61593L16.8641 4.17222L16.446 4.72852L16.0278 5.28482L15.6097 5.98019L15.1916 6.67556L14.9129 7.37093L14.4947 8.48352L14.216 9.45704L14.0766 10.0133V10.5696L13.9373 11.4041V12.0995V12.9339L14.0766 13.9074L14.216 15.1591L14.4947 16.6889L14.6341 17.8015L14.9129 19.4704L15.0522 20.583L15.331 21.9737L15.6097 23.3645L16.0278 25.4506L16.3066 26.285L16.446 26.8413L16.7247 27.9539L17.1428 29.3446L17.5609 30.7354L18.2578 32.8215L18.8153 34.3513L19.7909 36.8546L20.3484 38.2454L20.7665 39.2189L21.1846 40.3315L21.8815 41.8613L22.7177 43.5302L23.4146 44.9209L24.1115 46.5898L24.669 47.5634L25.6446 49.2323L26.2021 50.3448L26.8989 51.4574L27.7352 52.8482L28.432 53.8217L29.2683 55.0734L30.1045 56.0469L30.8014 56.8813L31.2195 57.2985L32.0557 58.133L33.1707 59.2456L34.0069 60.08L34.8432 60.9145L35.54 61.4708L36.2369 62.0271L37.3519 62.7224L38.6062 63.5569L39.7212 64.2523L40.5575 64.9476L41.3937 65.5039L42.0906 65.9212L43.2055 66.4774L44.4599 67.1728L45.7143 67.8682L46.6899 68.5636L48.0836 69.2589L50.3136 70.3715L52.4041 71.4841L54.216 72.4576L56.446 73.5702L58.2578 74.4047L59.7909 75.2391L61.7421 76.0736L62.1602 76.2126L62.8571 76.6299L63.6933 77.0471L64.5296 77.4643L65.7839 78.0206L66.7595 78.2987L67.8745 78.716L68.7108 78.9941L69.1289 79.1332L69.6864 79.2723H70.2439H70.8014H71.2195H71.3588L72.0557 79.1332Z" fill="#40403F"/>
<path d="M77.6306 80.1066H78.4668H79.4425H79.8606L80.5574 79.8284L81.9512 79.4112L83.0661 79.133L84.3205 78.7158L85.1567 78.4377L87.108 77.8814L89.0592 77.186L91.7073 76.2125L92.2647 76.0734L93.2404 75.6562L94.3553 75.239L95.4703 74.8217L96.0278 74.5436L96.7247 74.2654L97.4215 73.9873L97.979 73.8482L98.5365 73.431L98.9546 73.2919L99.7909 72.8747L100.488 72.5965L100.906 72.3184L101.463 72.0402L102.021 71.623L102.439 71.3449L103.136 70.7886L103.833 70.3714L104.53 69.8151L105.087 69.3978L105.645 68.8415L106.341 68.2852L107.178 67.3117L107.735 66.6164L108.293 65.921L108.85 65.2256L109.686 64.2521L110.523 62.8614L111.359 61.8878L111.916 61.0534L112.474 60.0799L113.031 59.2454L113.31 58.6891L114.007 57.5765L114.425 56.8812L114.843 56.1858L115.261 55.0732L115.679 54.2388L116.376 52.848L116.794 52.1526L117.073 51.5963L117.352 50.901L117.631 49.9275L117.909 49.2321L118.188 48.3976L118.467 47.5632L118.885 46.7287L119.164 45.6162L119.442 44.5036L119.721 43.8082L119.861 43.2519L120 42.5565V41.8612V41.1658V40.6095L119.861 40.0532L119.582 39.2187L119.303 38.5234L119.024 37.9671L118.746 37.2717L118.188 36.5763L117.631 36.02L117.491 35.881L117.212 35.7419L116.934 35.4637L116.376 35.1856L115.958 34.9074L115.54 34.6293L115.122 34.4902H114.843L114.425 34.3511L113.868 34.2121L113.449 34.073H113.031H112.056H111.359L110.662 34.2121H110.244L109.547 34.4902L108.571 34.7684L106.76 35.4637L105.923 35.881L104.53 36.4373L102.578 37.4108L101.881 37.6889L101.603 37.828L101.185 38.1061L100.766 38.2452L100.348 38.5234L100.07 38.8015L99.7909 38.9406L99.2334 39.2187L98.6759 39.4969L97.7003 40.0532L96.4459 40.8876L95.6097 41.4439L94.6341 42.1393L93.6585 42.8347L92.6829 43.6691L91.7073 44.3645L91.0104 44.9208L90.1742 45.6162L89.4773 46.1725L88.6411 47.0069L88.0836 47.5632L87.2473 48.2586L86.6898 48.8149L86.2717 49.2321L85.8536 49.7884L85.4355 50.2056L85.0174 50.7619L84.4599 51.4573L83.9024 52.2917L83.4843 52.9871L83.0661 53.6825L82.7874 54.2388L82.5087 54.7951L82.0905 55.3513L81.9512 55.9076L81.6724 56.603L81.3937 57.4375L81.1149 58.2719L80.8362 59.1063L80.4181 60.0799L80.2787 60.6362L79.9999 61.4706L79.7212 62.4441L79.4425 63.2786L79.1637 64.2521L78.885 65.5038L78.4668 67.3117L78.0487 69.3978L77.6306 71.2058L77.2125 73.0138L77.0731 74.1264L76.7944 75.239L76.655 75.5171V76.2125L76.5156 77.3251V78.0204V78.7158V79.133L76.655 79.4112L76.9337 79.8284L77.0731 79.9675L77.3519 80.1066H77.6306Z" fill="#40403F"/>
<path d="M70.662 82.8885L70.1045 82.6104L69.4077 82.1931L68.7108 82.0541L67.8746 81.915L67.1777 81.7759L66.6202 81.6368L65.784 81.4978L64.5296 81.3587L63.2753 81.2196L62.1603 81.0805H61.4634L60.3484 80.9415L59.6516 80.8024H58.5366L57.0035 80.6633L55.331 80.5242H53.7979L51.9861 80.3852H51.5679L50.8711 80.2461H49.7561H48.223H46.8293H44.4599H42.9268H42.5087L41.3937 80.3852H39.8606L38.6063 80.5242L38.1882 80.6633H37.6307L36.5157 80.9415L35.5401 81.2196L34.5645 81.4978L33.5889 81.6368L33.0314 81.7759L32.0557 82.1931L31.0801 82.4713L30.1045 82.8885L29.6864 83.1667L29.1289 83.4448L28.2927 83.862L27.0383 84.4183L26.3415 84.8355L25.5052 85.3918L24.669 85.9481L23.6934 86.3654L22.5784 87.0607L21.8815 87.617L21.0453 88.1733L20.6272 88.4515L19.7909 89.0078L18.9547 89.5641L17.9791 90.2594L17.2822 90.8157L16.1672 91.5111L15.4704 92.0674L14.6341 92.7628L13.3798 93.7363L12.1254 94.8489L10.7317 96.1006L9.61672 97.2132L8.36237 98.4648L6.96864 99.9946L5.99303 100.829L5.01742 101.942L4.18118 103.054L3.48432 103.75L3.20557 104.167L2.64808 104.723L2.09059 105.419L1.67247 106.114L1.11498 106.948L0.836237 107.505L0.557491 108.339L0.418119 108.895L0.139373 109.591L0 110.564V111.26V112.511L0.139373 113.346L0.278746 114.319L0.696864 115.293L0.97561 115.988L1.25436 116.544L1.95122 117.379L2.64808 118.213L3.48432 118.909L4.32056 119.604L5.15679 120.021L5.99303 120.439L6.82927 120.856L7.52613 120.995L8.36237 121.134L9.05923 121.273H9.7561L11.4286 121.412H13.101H14.216H15.8885L17.0035 121.273H18.2578L20.0697 121.134H20.9059L21.324 120.995L22.2997 120.856L23.554 120.717L24.8084 120.578L26.0627 120.299L27.4564 120.16L28.5714 119.882L29.8258 119.604L31.2195 119.326L33.0314 118.909L34.2857 118.492L36.5157 117.935L37.6307 117.518L39.3031 116.962L40.4181 116.684L41.2544 116.266L42.23 115.988L42.9268 115.71L44.5993 114.876L45.4355 114.597L46.5505 113.902L48.0836 113.068L49.6167 111.955L51.2892 110.703L52.1254 110.008L52.9617 109.313L53.6585 108.617L54.9129 107.087L55.7491 106.253L57.0035 104.862L58.9547 102.359L59.9303 101.246L60.6272 100.273L61.1847 99.5774L61.7422 98.882L62.2997 98.1867L62.8571 97.3522L63.554 96.3787L64.5296 95.127L65.784 93.18L66.899 91.6502L67.5958 90.6767L68.0139 90.1204L68.7108 89.1468L69.2683 88.1733L69.8258 87.3389L70.1045 86.7826L70.3833 86.2263L70.662 85.8091L70.8014 85.2528L70.9408 84.4183L71.0801 84.0011V83.7229L70.9408 83.3057L70.662 82.8885Z" fill="#40403F"/>
<path d="M74.5644 86.2256L74.1463 86.5037L73.7282 86.7819L73.5888 86.921L73.3101 87.1991L72.7526 87.7554L72.1951 88.4508L71.777 89.2852L71.2195 89.9806L70.662 90.9541L70.1045 91.7886L69.547 92.623L69.1289 93.4574L68.5714 94.2919L68.0139 95.1263L67.5958 95.8217L67.317 96.378L67.0383 96.9343L66.6202 97.6297L66.0627 98.6032L65.5052 99.5767L65.0871 100.411L64.669 101.246L64.3902 102.08L63.9721 102.775L63.6934 103.749L63.4146 104.166L63.2752 104.862L62.9965 105.835V106.113L62.8571 106.809L62.7177 107.365L62.5784 107.921V108.756V109.312V110.285V111.12V111.815V113.067L62.7177 113.901L62.8571 115.153L62.9965 116.266L63.1359 116.961V117.656L63.2752 118.074V118.63L63.4146 119.047L63.554 119.742L63.6934 120.438L63.8327 121.133L64.1115 121.968L64.2508 122.663L64.3902 123.219L64.5296 123.776L64.8083 124.61L65.0871 125.444L65.2265 126.14L65.5052 126.835L65.7839 127.67L66.2021 128.365L66.4808 129.06L66.6202 129.339L66.7596 129.756L66.8989 130.312L67.1777 130.729L67.4564 131.425L67.7352 131.981L68.0139 132.537L68.5714 133.094L68.8502 133.372L69.2683 133.65L69.6864 134.067L70.3833 134.484L70.662 134.623L71.2195 134.902L71.4982 135.041L72.1951 135.18L72.7526 135.319H73.3101L74.0069 135.18H74.5644L75.54 134.902L76.2369 134.484L77.2125 134.067L77.9094 133.372L78.3275 132.954L78.6063 132.676L79.0244 131.981L79.3031 131.564L79.8606 130.451L80.5575 129.339L80.9756 128.504L81.3937 127.392L81.8118 126.418L82.3693 125.166L82.9268 123.497L83.4843 121.689L83.763 120.716L84.1812 119.186L84.5993 117.656L84.7387 116.544L85.0174 115.292L85.1568 114.04L85.4355 112.65L85.5749 110.981V110.703V109.868V108.895L85.4355 107.226L85.0174 105.418L84.878 104.583L84.4599 103.332L83.3449 100.689L82.0906 97.9078L81.6725 96.9343L81.115 95.9608L80.4181 94.57L79.7212 93.3184L79.0244 92.0667L78.3275 90.815L77.4913 89.2852L76.7944 88.3117L76.0975 87.1991L75.54 86.6428L75.1219 86.3647L74.7038 86.2256H74.5644Z" fill="#40403F"/>
<path d="M77.9094 83.7228L78.1882 83.4446L78.4669 83.3055L78.7457 83.1665L79.0244 83.0274L79.5819 82.8883L80.5575 82.7492L82.9268 82.4711L84.7387 82.332L85.8537 82.1929L87.9443 82.0539H89.338L90.3136 81.9148H91.7073L93.1011 82.0539H94.216H94.6342L95.0523 82.1929L95.8885 82.332L96.8641 82.4711L97.8397 82.8883L98.9547 83.3055L99.9303 83.7228L101.185 84.4181L102.439 85.2526L103.693 85.9479L105.226 87.0605L106.76 88.1731L107.735 89.0076L108.711 89.842L109.686 90.8155L110.244 91.2328L110.801 91.7891L111.359 92.6235L111.916 93.0407L112.474 93.7361L112.892 94.1533L113.171 94.7096L113.449 94.9878L113.589 95.5441L113.868 96.1004L114.007 96.5176V97.352V97.9083V98.4646L113.868 98.8818L113.728 99.5772L113.31 100.134L113.031 100.551L112.474 100.968L112.195 101.385L111.638 101.663L111.08 101.941L110.523 102.22L109.965 102.359H109.408L108.571 102.498H107.178L105.923 102.359L105.366 102.498L104.53 102.359H103.554L102.578 102.22L101.324 102.081L99.7909 101.802L98.2578 101.385L96.8641 101.107L95.331 100.69L94.216 100.273L92.9617 99.8554L91.4286 99.2991L90.5923 98.8818L89.4774 98.3255L88.9199 97.9083L88.0836 97.352L87.6655 96.9348L86.9687 96.2394L86.2718 95.6831L85.1568 94.4315L83.6237 92.6235L82.0906 90.6765L81.115 89.1466L79.7213 87.4778L79.0244 86.5042L78.3275 85.3916L78.0488 84.5572L77.9094 84.2791V83.7228Z" fill="#40403F"/>
</svg>
