<svg width="45" height="51" viewBox="0 0 45 51" fill="none" xmlns="http://www.w3.org/2000/svg">
<path d="M27.0209 29.8243L27.1777 29.667L27.3345 29.4049L27.3867 29.1953L27.4912 28.9332L27.5435 28.5663V28.0946V27.7276V27.4656V26.9938L27.4912 26.6269V26.26L27.439 25.631V25.0545L27.3867 24.3207L27.3345 23.8489L27.2822 23.4296V22.9579L27.2299 22.2765L27.1777 21.6999L27.0731 21.1757L27.0209 20.4943L26.9686 20.1799V19.9702L26.9163 19.4985L26.7595 18.6598L26.655 17.926V17.7163L26.6027 17.4543L26.5505 17.1398L26.4459 16.8253L26.3414 16.2487L26.2369 15.8818L26.1846 15.5149L26.1324 15.2528L26.0801 15.0432L26.0278 14.8859L25.9233 14.7287L25.871 14.4666L25.7665 14.2569L25.662 13.9949L25.5574 13.7328L25.4007 13.3659L25.1916 12.8941L25.0871 12.6845L24.9303 12.4224L24.7735 12.1603L24.6167 11.8458L24.4076 11.4789L24.1986 11.2693L24.0418 11.0072L23.885 10.7975L23.7282 10.6403L23.4669 10.2734L23.3101 10.0637L23.101 9.80164L22.8397 9.48715L22.5784 9.17266L22.2125 8.75334L21.8989 8.38643L21.5853 8.01953L21.0627 7.49538L20.4878 6.91881L20.1219 6.49949L19.4947 5.92292L18.9198 5.39877L18.3972 4.97944L18.1358 4.71737L17.8223 4.45529L17.5609 4.24563L17.1428 3.87873L16.6202 3.51182L16.3588 3.30216L16.202 3.19733L15.8885 2.98767L15.5749 2.72559L15.1045 2.4111L14.6864 2.14902L14.3205 1.93936L13.9547 1.67729L13.5888 1.46763L12.9094 1.0483L12.4912 0.838643L12.1777 0.628983L11.8118 0.419322L11.6027 0.366906L11.3414 0.262076L11.0801 0.157246L10.8188 0.10483L10.5575 0.0524152L10.1393 0H9.66895H9.40762L9.1463 0.0524152L8.83271 0.10483L8.62365 0.157246L8.20553 0.262076L7.89195 0.366906L7.63062 0.471737L7.47383 0.576567L7.31703 0.681398L7.05571 0.838643L6.84665 1.0483L6.68985 1.15313L6.58533 1.25797L6.4808 1.3628L6.324 1.57246L6.16721 1.78212L6.01041 1.99178L5.85362 2.25385L5.69682 2.51593L5.59229 2.77801L5.4355 3.19733L5.33097 3.56423L5.27871 3.7739V3.98356L5.22644 4.29805V4.56012V4.87461L5.27871 5.24152L5.33097 5.71326L5.4355 6.28983L5.48776 6.70915L5.59229 7.33813L5.64456 7.75745L5.74909 8.2816L5.85362 8.80575L6.01041 9.59198L6.11494 9.90647L6.16721 10.1161L6.27174 10.5355L6.42853 11.0596L6.58533 11.5838L6.84665 12.37L7.05571 12.9466L7.42156 13.89L7.63062 14.4142L7.78742 14.7811L7.94421 15.2004L8.20553 15.777L8.51912 16.406L8.78045 16.9301L9.04177 17.5591L9.25083 17.926L9.61668 18.555L9.82574 18.9743L10.0871 19.3936L10.4007 19.9178L10.662 20.2847L10.9756 20.7564L11.2892 21.1233L11.5505 21.4378L11.7073 21.5951L12.0209 21.9096L12.439 22.3289L12.7526 22.6434L13.0662 22.9579L13.3275 23.1675L13.5888 23.3772L14.0069 23.6393L14.4773 23.9538L14.8954 24.2158L15.209 24.4779L15.5226 24.6876L15.7839 24.8448L16.202 25.0545L16.6724 25.3165L17.1428 25.5786L17.5087 25.8407L18.0313 26.1028L18.8676 26.5221L19.6515 26.9414L20.331 27.3083L21.1672 27.7276L21.8466 28.0421L22.4216 28.3566L23.1533 28.6711L23.3101 28.7235L23.5714 28.8808L23.885 29.038L24.1986 29.1953L24.6689 29.4049L25.0348 29.5098L25.4529 29.667L25.7665 29.7718L25.9233 29.8243L26.1324 29.8767H26.3414H26.5505H26.7073H26.7595L27.0209 29.8243Z" fill="white"/>
<path d="M29.1115 30.1912H29.4251H29.7909H29.9477L30.209 30.0863L30.7317 29.9291L31.1498 29.8243L31.6202 29.667L31.9338 29.5622L32.6655 29.3525L33.3972 29.0905L34.3902 28.7235L34.5993 28.6711L34.9651 28.5139L35.3833 28.3566L35.8014 28.1994L36.0104 28.0946L36.2718 27.9897L36.5331 27.8849L36.7421 27.8325L36.9512 27.6752L37.108 27.6228L37.4216 27.4656L37.6829 27.3607L37.8397 27.2559L38.0488 27.1511L38.2578 26.9938L38.4146 26.889L38.6759 26.6794L38.9373 26.5221L39.1986 26.3124L39.4076 26.1552L39.6167 25.9455L39.878 25.7359L40.1916 25.369L40.4007 25.1069L40.6097 24.8448L40.8188 24.5827L41.1324 24.2158L41.446 23.6917L41.7596 23.3248L41.9686 23.0103L42.1777 22.6434L42.3867 22.3289L42.4913 22.1192L42.7526 21.6999L42.9094 21.4378L43.0662 21.1758L43.223 20.7564L43.3798 20.4419L43.6411 19.9178L43.7979 19.6557L43.9024 19.4461L44.0069 19.184L44.1115 18.8171L44.216 18.555L44.3205 18.2405L44.4251 17.926L44.5819 17.6115L44.6864 17.1922L44.7909 16.7729L44.8954 16.5108L44.9477 16.3011L45 16.0391V15.777V15.5149V15.3053L44.9477 15.0956L44.8432 14.7811L44.7387 14.519L44.6341 14.3094L44.5296 14.0473L44.3205 13.7852L44.1115 13.5755L44.0592 13.5231L43.9547 13.4707L43.8502 13.3659L43.6411 13.2611L43.4843 13.1562L43.3275 13.0514L43.1707 12.999H43.0662L42.9094 12.9466L42.7003 12.8942L42.5435 12.8417H42.3867H42.0209H41.7596L41.4982 12.8942H41.3414L41.0801 12.999L40.7143 13.1038L40.0348 13.3659L39.7212 13.5231L39.1986 13.7328L38.4669 14.0997L38.2056 14.2045L38.101 14.2569L37.9442 14.3618L37.7874 14.4142L37.6306 14.519L37.5261 14.6239L37.4216 14.6763L37.2125 14.7811L37.0035 14.8859L36.6376 15.0956L36.1672 15.4101L35.8536 15.6197L35.4878 15.8818L35.1219 16.1439L34.7561 16.4584L34.3902 16.7205L34.1289 16.9301L33.8153 17.1922L33.554 17.4019L33.2404 17.7164L33.0313 17.926L32.7177 18.1881L32.5087 18.3977L32.3519 18.555L32.1951 18.7647L32.0383 18.9219L31.8815 19.1316L31.6725 19.3936L31.4634 19.7081L31.3066 19.9702L31.1498 20.2323L31.0453 20.4419L30.9407 20.6516L30.784 20.8613L30.7317 21.0709L30.6272 21.333L30.5226 21.6475L30.4181 21.962L30.3136 22.2765L30.1568 22.6434L30.1045 22.853L30 23.1675L29.8954 23.5344L29.7909 23.8489L29.6864 24.2158L29.5819 24.6876L29.4251 25.369L29.2683 26.1552L29.1115 26.8366L28.9547 27.518L28.9024 27.9373L28.7979 28.3566L28.7456 28.4615V28.7235L28.6934 29.1429V29.4049V29.667V29.8243L28.7456 29.9291L28.8502 30.0863L28.9024 30.1388L29.0069 30.1912H29.1115Z" fill="white"/>
<path d="M26.4983 31.2395L26.2892 31.1347L26.0279 30.9774L25.7666 30.925L25.453 30.8726L25.1916 30.8202L24.9826 30.7677L24.669 30.7153L24.1986 30.6629L23.7282 30.6105L23.3101 30.5581H23.0488L22.6307 30.5057L22.3693 30.4533H21.9512L21.3763 30.4008L20.7491 30.3484H20.1742L19.4948 30.296H19.338L19.0767 30.2436H18.6585H18.0836H17.561H16.6725H16.0976H15.9408L15.5226 30.296H14.9477L14.4774 30.3484L14.3206 30.4008H14.1115L13.6934 30.5057L13.3275 30.6105L12.9617 30.7153L12.5958 30.7677L12.3868 30.8202L12.0209 30.9774L11.6551 31.0822L11.2892 31.2395L11.1324 31.3443L10.9233 31.4491L10.6098 31.6064L10.1394 31.816L9.87805 31.9733L9.56446 32.183L9.25087 32.3926L8.88502 32.5499L8.4669 32.8119L8.20557 33.0216L7.89199 33.2313L7.73519 33.3361L7.4216 33.5457L7.10801 33.7554L6.74216 34.0175L6.48084 34.2271L6.06272 34.4892L5.80139 34.6989L5.4878 34.961L5.01742 35.3279L4.54704 35.7472L4.02439 36.2189L3.60627 36.6382L3.13589 37.11L2.61324 37.6866L2.24739 38.001L1.88153 38.4204L1.56794 38.8397L1.30662 39.1018L1.20209 39.259L0.993031 39.4687L0.783972 39.7307L0.627178 39.9928L0.418118 40.3073L0.313589 40.517L0.209059 40.8315L0.156794 41.0411L0.0522648 41.3032L0 41.6701V41.9322V42.4039L0.0522648 42.7184L0.10453 43.0853L0.261324 43.4522L0.365854 43.7143L0.470383 43.924L0.731707 44.2385L0.993031 44.5529L1.30662 44.815L1.62021 45.0771L1.9338 45.2343L2.24739 45.3916L2.56098 45.5488L2.8223 45.6012L3.13589 45.6537L3.39721 45.7061H3.65854L4.28571 45.7585H4.91289H5.33101H5.95819L6.37631 45.7061H6.84669L7.52613 45.6537H7.83972L7.99652 45.6012L8.36237 45.5488L8.83275 45.4964L9.30314 45.444L9.77352 45.3392L10.2962 45.2868L10.7143 45.1819L11.1847 45.0771L11.7073 44.9723L12.3868 44.815L12.8571 44.6578L13.6934 44.4481L14.1115 44.2909L14.7387 44.0812L15.1568 43.9764L15.4704 43.8191L15.8362 43.7143L16.0976 43.6095L16.7247 43.295L17.0383 43.1902L17.4564 42.9281L18.0314 42.6136L18.6063 42.1943L19.2334 41.7225L19.547 41.4604L19.8606 41.1984L20.122 40.9363L20.5923 40.3597L20.9059 40.0452L21.3763 39.5211L22.108 38.5776L22.4739 38.1583L22.7352 37.7914L22.9443 37.5293L23.1533 37.2672L23.3624 37.0052L23.5714 36.6907L23.8328 36.3238L24.1986 35.852L24.669 35.1182L25.0871 34.5416L25.3484 34.1747L25.5052 33.9651L25.7666 33.5982L25.9756 33.2313L26.1847 32.9168L26.2892 32.7071L26.3937 32.4974L26.4983 32.3402L26.5505 32.1305L26.6028 31.816L26.6551 31.6588V31.554L26.6028 31.3967L26.4983 31.2395Z" fill="white"/>
<path d="M27.9617 32.4974L27.8049 32.6023L27.6481 32.7071L27.5958 32.7595L27.4913 32.8643L27.2823 33.074L27.0732 33.3361L26.9164 33.6506L26.7073 33.9126L26.4983 34.2796L26.2892 34.594L26.0802 34.9085L25.9234 35.223L25.7143 35.5375L25.5052 35.852L25.3485 36.1141L25.2439 36.3237L25.1394 36.5334L24.9826 36.7955L24.7735 37.1624L24.5645 37.5293L24.4077 37.8438L24.2509 38.1583L24.1464 38.4728L23.9896 38.7348L23.885 39.1018L23.7805 39.259L23.7282 39.5211L23.6237 39.888V39.9928L23.5714 40.2549L23.5192 40.4645L23.4669 40.6742V40.9887V41.1984V41.5653V41.8798V42.1418V42.6136L23.5192 42.9281L23.5714 43.3998L23.6237 43.8191L23.676 44.0812V44.3433L23.7282 44.5005V44.7102L23.7805 44.8674L23.8328 45.1295L23.885 45.3916L23.9373 45.6537L24.0418 45.9681L24.0941 46.2302L24.1464 46.4399L24.1986 46.6495L24.3032 46.964L24.4077 47.2785L24.4599 47.5406L24.5645 47.8027L24.669 48.1172L24.8258 48.3792L24.9303 48.6413L24.9826 48.7462L25.0349 48.9034L25.0871 49.1131L25.1917 49.2703L25.2962 49.5324L25.4007 49.742L25.5052 49.9517L25.7143 50.1614L25.8188 50.2662L25.9756 50.371L26.1324 50.5283L26.3937 50.6855L26.4983 50.7379L26.7073 50.8428L26.8119 50.8952L27.0732 50.9476L27.2823 51H27.4913L27.7526 50.9476H27.9617L28.3275 50.8428L28.5889 50.6855L28.9547 50.5283L29.2161 50.2662L29.3728 50.1089L29.4774 50.0041L29.6342 49.742L29.7387 49.5848L29.9478 49.1655L30.2091 48.7462L30.3659 48.4317L30.5227 48.0123L30.6795 47.6454L30.8885 47.1737L31.0976 46.5447L31.3066 45.8633L31.4112 45.4964L31.568 44.9198L31.7248 44.3433L31.777 43.924L31.8816 43.4522L31.9338 42.9805L32.0384 42.4563L32.0906 41.8273V41.7225V41.408V41.0411L32.0384 40.4121L31.8816 39.7307L31.8293 39.4162L31.6725 38.9445L31.2544 37.9486L30.784 36.9003L30.6272 36.5334L30.4181 36.1665L30.1568 35.6423L29.8955 35.1706L29.6342 34.6989L29.3728 34.2271L29.0593 33.6506L28.7979 33.2837L28.5366 32.8643L28.3275 32.6547L28.1708 32.5499L28.014 32.4974H27.9617Z" fill="white"/>
<path d="M29.2161 31.554L29.3206 31.4491L29.4251 31.3967L29.5297 31.3443L29.6342 31.2919L29.8432 31.2395L30.2091 31.187L31.0976 31.0822L31.777 31.0298L32.1952 30.9774L32.9791 30.925H33.5018L33.8676 30.8726H34.3903L34.9129 30.925H35.331H35.4878L35.6446 30.9774L35.9582 31.0298L36.3241 31.0822L36.6899 31.2395L37.108 31.3967L37.4739 31.554L37.9443 31.816L38.4147 32.1305L38.8851 32.3926L39.46 32.8119L40.0349 33.2312L40.4007 33.5457L40.7666 33.8602L41.1324 34.2271L41.3415 34.3844L41.5506 34.594L41.7596 34.9085L41.9687 35.0658L42.1777 35.3279L42.3345 35.4851L42.4391 35.6948L42.5436 35.7996L42.5959 36.0092L42.7004 36.2189L42.7526 36.3762V36.6906V36.9003V37.11L42.7004 37.2672L42.6481 37.5293L42.4913 37.739L42.3868 37.8962L42.1777 38.0534L42.0732 38.2107L41.8641 38.3155L41.6551 38.4204L41.446 38.5252L41.237 38.5776H41.0279L40.7143 38.63H40.1917L39.7213 38.5776L39.5122 38.63L39.1986 38.5776H38.8328L38.4669 38.5252L37.9965 38.4728L37.4216 38.3679L36.8467 38.2107L36.3241 38.1059L35.7492 37.9486L35.331 37.7914L34.8607 37.6341L34.2857 37.4245L33.9722 37.2672L33.554 37.0576L33.345 36.9003L33.0314 36.6906L32.8746 36.5334L32.6133 36.2713L32.352 36.0617L31.9338 35.5899L31.3589 34.9085L30.784 34.1747L30.4182 33.5981L29.8955 32.9692L29.6342 32.6023L29.3729 32.1829L29.2683 31.8684L29.2161 31.7636V31.554Z" fill="white"/>
</svg>
